<mxfile host="app.diagrams.net" agent="Mozilla/5.0 (Windows NT 10.0; Win64; x64) AppleWebKit/537.36 (KHTML, like Gecko) Chrome/137.0.0.0 Safari/537.36 Edg/137.0.0.0" version="27.0.8" pages="2">
  <diagram name="Page-1" id="L-5Jiikm8B5-NlEXY8FQ">
    <mxGraphModel dx="2008" dy="1167" grid="0" gridSize="10" guides="1" tooltips="1" connect="1" arrows="1" fold="1" page="1" pageScale="1" pageWidth="850" pageHeight="1100" math="0" shadow="0">
      <root>
        <mxCell id="0" />
        <mxCell id="1" parent="0" />
        <mxCell id="KD9PYuzohHq4luVNRM3h-57" value="" style="rounded=0;whiteSpace=wrap;html=1;fillColor=none;movable=1;resizable=1;rotatable=1;deletable=1;editable=1;locked=0;connectable=1;" vertex="1" parent="1">
          <mxGeometry x="90" y="60" width="670" height="980" as="geometry" />
        </mxCell>
        <mxCell id="KD9PYuzohHq4luVNRM3h-19" value="" style="edgeStyle=orthogonalEdgeStyle;rounded=0;orthogonalLoop=1;jettySize=auto;html=1;dashed=1;" edge="1" parent="1" source="KD9PYuzohHq4luVNRM3h-4" target="KD9PYuzohHq4luVNRM3h-18">
          <mxGeometry relative="1" as="geometry" />
        </mxCell>
        <mxCell id="KD9PYuzohHq4luVNRM3h-4" value="User Management" style="ellipse;whiteSpace=wrap;html=1;" vertex="1" parent="1">
          <mxGeometry x="167" y="150" width="120" height="80" as="geometry" />
        </mxCell>
        <mxCell id="KD9PYuzohHq4luVNRM3h-5" value="Search &amp;amp; select Cars" style="ellipse;whiteSpace=wrap;html=1;" vertex="1" parent="1">
          <mxGeometry x="167" y="278" width="120" height="80" as="geometry" />
        </mxCell>
        <mxCell id="KD9PYuzohHq4luVNRM3h-52" style="rounded=0;orthogonalLoop=1;jettySize=auto;html=1;entryX=0;entryY=1;entryDx=0;entryDy=0;dashed=1;exitX=1;exitY=0;exitDx=0;exitDy=0;" edge="1" parent="1" source="KD9PYuzohHq4luVNRM3h-7" target="KD9PYuzohHq4luVNRM3h-18">
          <mxGeometry relative="1" as="geometry" />
        </mxCell>
        <mxCell id="KD9PYuzohHq4luVNRM3h-61" style="edgeStyle=orthogonalEdgeStyle;rounded=0;orthogonalLoop=1;jettySize=auto;html=1;dashed=1;" edge="1" parent="1" source="KD9PYuzohHq4luVNRM3h-7" target="KD9PYuzohHq4luVNRM3h-59">
          <mxGeometry relative="1" as="geometry" />
        </mxCell>
        <mxCell id="KD9PYuzohHq4luVNRM3h-7" value="Booking &amp;amp; Reservation" style="ellipse;whiteSpace=wrap;html=1;" vertex="1" parent="1">
          <mxGeometry x="167" y="534" width="120" height="80" as="geometry" />
        </mxCell>
        <mxCell id="KD9PYuzohHq4luVNRM3h-55" value="" style="edgeStyle=orthogonalEdgeStyle;rounded=0;orthogonalLoop=1;jettySize=auto;html=1;dashed=1;" edge="1" parent="1" source="KD9PYuzohHq4luVNRM3h-9" target="KD9PYuzohHq4luVNRM3h-54">
          <mxGeometry relative="1" as="geometry" />
        </mxCell>
        <mxCell id="KD9PYuzohHq4luVNRM3h-9" value="Pricing &amp;amp; Payment Process" style="ellipse;whiteSpace=wrap;html=1;" vertex="1" parent="1">
          <mxGeometry x="167" y="662" width="120" height="80" as="geometry" />
        </mxCell>
        <mxCell id="KD9PYuzohHq4luVNRM3h-11" value="Rental Agreement &amp;amp; Documentation" style="ellipse;whiteSpace=wrap;html=1;" vertex="1" parent="1">
          <mxGeometry x="167" y="790" width="120" height="80" as="geometry" />
        </mxCell>
        <mxCell id="KD9PYuzohHq4luVNRM3h-13" value="Availability &amp;amp; Schedulng" style="ellipse;whiteSpace=wrap;html=1;" vertex="1" parent="1">
          <mxGeometry x="167" y="406" width="120" height="80" as="geometry" />
        </mxCell>
        <mxCell id="KD9PYuzohHq4luVNRM3h-31" style="edgeStyle=orthogonalEdgeStyle;rounded=0;orthogonalLoop=1;jettySize=auto;html=1;entryX=0;entryY=0.5;entryDx=0;entryDy=0;exitX=1;exitY=0.5;exitDx=0;exitDy=0;exitPerimeter=0;" edge="1" parent="1" source="KD9PYuzohHq4luVNRM3h-14" target="KD9PYuzohHq4luVNRM3h-4">
          <mxGeometry relative="1" as="geometry">
            <Array as="points">
              <mxPoint x="64" y="560" />
              <mxPoint x="120" y="560" />
              <mxPoint x="120" y="190" />
            </Array>
          </mxGeometry>
        </mxCell>
        <mxCell id="KD9PYuzohHq4luVNRM3h-32" style="edgeStyle=orthogonalEdgeStyle;rounded=0;orthogonalLoop=1;jettySize=auto;html=1;entryX=0;entryY=0.5;entryDx=0;entryDy=0;exitX=1;exitY=0.5;exitDx=0;exitDy=0;exitPerimeter=0;" edge="1" parent="1" source="KD9PYuzohHq4luVNRM3h-14" target="KD9PYuzohHq4luVNRM3h-5">
          <mxGeometry relative="1" as="geometry">
            <Array as="points">
              <mxPoint x="120" y="559" />
              <mxPoint x="120" y="318" />
            </Array>
          </mxGeometry>
        </mxCell>
        <mxCell id="KD9PYuzohHq4luVNRM3h-33" style="edgeStyle=orthogonalEdgeStyle;rounded=0;orthogonalLoop=1;jettySize=auto;html=1;entryX=0;entryY=0.5;entryDx=0;entryDy=0;exitX=1;exitY=0.5;exitDx=0;exitDy=0;exitPerimeter=0;" edge="1" parent="1" source="KD9PYuzohHq4luVNRM3h-14" target="KD9PYuzohHq4luVNRM3h-13">
          <mxGeometry relative="1" as="geometry">
            <Array as="points">
              <mxPoint x="64" y="560" />
              <mxPoint x="120" y="560" />
              <mxPoint x="120" y="446" />
            </Array>
          </mxGeometry>
        </mxCell>
        <mxCell id="KD9PYuzohHq4luVNRM3h-34" style="edgeStyle=orthogonalEdgeStyle;rounded=0;orthogonalLoop=1;jettySize=auto;html=1;entryX=0;entryY=0.5;entryDx=0;entryDy=0;exitX=1;exitY=0.5;exitDx=0;exitDy=0;exitPerimeter=0;" edge="1" parent="1" source="KD9PYuzohHq4luVNRM3h-14" target="KD9PYuzohHq4luVNRM3h-7">
          <mxGeometry relative="1" as="geometry">
            <Array as="points">
              <mxPoint x="64" y="560" />
              <mxPoint x="120" y="560" />
              <mxPoint x="120" y="574" />
            </Array>
          </mxGeometry>
        </mxCell>
        <mxCell id="KD9PYuzohHq4luVNRM3h-35" style="edgeStyle=orthogonalEdgeStyle;rounded=0;orthogonalLoop=1;jettySize=auto;html=1;entryX=0;entryY=0.5;entryDx=0;entryDy=0;exitX=1;exitY=0.5;exitDx=0;exitDy=0;exitPerimeter=0;" edge="1" parent="1" source="KD9PYuzohHq4luVNRM3h-14" target="KD9PYuzohHq4luVNRM3h-9">
          <mxGeometry relative="1" as="geometry">
            <Array as="points">
              <mxPoint x="64" y="560" />
              <mxPoint x="120" y="560" />
              <mxPoint x="120" y="702" />
            </Array>
          </mxGeometry>
        </mxCell>
        <mxCell id="KD9PYuzohHq4luVNRM3h-36" style="edgeStyle=orthogonalEdgeStyle;rounded=0;orthogonalLoop=1;jettySize=auto;html=1;entryX=0;entryY=0.5;entryDx=0;entryDy=0;exitX=1;exitY=0.5;exitDx=0;exitDy=0;exitPerimeter=0;" edge="1" parent="1" source="KD9PYuzohHq4luVNRM3h-14" target="KD9PYuzohHq4luVNRM3h-11">
          <mxGeometry relative="1" as="geometry">
            <Array as="points">
              <mxPoint x="64" y="560" />
              <mxPoint x="120" y="560" />
              <mxPoint x="120" y="830" />
            </Array>
          </mxGeometry>
        </mxCell>
        <mxCell id="KD9PYuzohHq4luVNRM3h-62" style="edgeStyle=orthogonalEdgeStyle;rounded=0;orthogonalLoop=1;jettySize=auto;html=1;entryX=0;entryY=0.5;entryDx=0;entryDy=0;exitX=1;exitY=0.5;exitDx=0;exitDy=0;exitPerimeter=0;" edge="1" parent="1" source="KD9PYuzohHq4luVNRM3h-14" target="KD9PYuzohHq4luVNRM3h-59">
          <mxGeometry relative="1" as="geometry">
            <Array as="points">
              <mxPoint x="120" y="559" />
              <mxPoint x="120" y="960" />
            </Array>
          </mxGeometry>
        </mxCell>
        <object label="" Customer="" id="KD9PYuzohHq4luVNRM3h-14">
          <mxCell style="shape=mxgraph.signs.people.man_1;html=1;pointerEvents=1;fillColor=#000000;strokeColor=none;verticalLabelPosition=bottom;verticalAlign=top;align=center;" vertex="1" parent="1">
            <mxGeometry x="27" y="510" width="37" height="98" as="geometry" />
          </mxCell>
        </object>
        <mxCell id="KD9PYuzohHq4luVNRM3h-15" value="Customer" style="text;strokeColor=none;align=center;fillColor=none;html=1;verticalAlign=middle;whiteSpace=wrap;rounded=0;" vertex="1" parent="1">
          <mxGeometry x="15.5" y="601" width="60" height="30" as="geometry" />
        </mxCell>
        <mxCell id="KD9PYuzohHq4luVNRM3h-16" value="Vehicle Inventory Management" style="ellipse;whiteSpace=wrap;html=1;" vertex="1" parent="1">
          <mxGeometry x="557" y="150" width="120" height="80" as="geometry" />
        </mxCell>
        <mxCell id="KD9PYuzohHq4luVNRM3h-17" value="Reporting &amp;amp; Analysis" style="ellipse;whiteSpace=wrap;html=1;" vertex="1" parent="1">
          <mxGeometry x="557" y="278" width="120" height="80" as="geometry" />
        </mxCell>
        <mxCell id="KD9PYuzohHq4luVNRM3h-29" value="" style="edgeStyle=orthogonalEdgeStyle;rounded=0;orthogonalLoop=1;jettySize=auto;html=1;dashed=1;" edge="1" parent="1" source="KD9PYuzohHq4luVNRM3h-18" target="KD9PYuzohHq4luVNRM3h-28">
          <mxGeometry relative="1" as="geometry" />
        </mxCell>
        <mxCell id="KD9PYuzohHq4luVNRM3h-18" value="Check Customer Records" style="ellipse;whiteSpace=wrap;html=1;" vertex="1" parent="1">
          <mxGeometry x="387" y="150" width="120" height="80" as="geometry" />
        </mxCell>
        <mxCell id="KD9PYuzohHq4luVNRM3h-21" value="&amp;lt;&amp;lt;include&amp;gt;&amp;gt;" style="text;strokeColor=none;align=center;fillColor=none;html=1;verticalAlign=middle;whiteSpace=wrap;rounded=0;" vertex="1" parent="1">
          <mxGeometry x="307" y="160" width="60" height="30" as="geometry" />
        </mxCell>
        <mxCell id="KD9PYuzohHq4luVNRM3h-28" value="Register / Login" style="ellipse;whiteSpace=wrap;html=1;" vertex="1" parent="1">
          <mxGeometry x="387" y="310" width="120" height="80" as="geometry" />
        </mxCell>
        <mxCell id="KD9PYuzohHq4luVNRM3h-30" value="&amp;lt;&amp;lt;extend&amp;gt;&amp;gt;" style="text;strokeColor=none;align=center;fillColor=none;html=1;verticalAlign=middle;whiteSpace=wrap;rounded=0;" vertex="1" parent="1">
          <mxGeometry x="457" y="260" width="60" height="30" as="geometry" />
        </mxCell>
        <mxCell id="KD9PYuzohHq4luVNRM3h-40" value="" style="edgeStyle=orthogonalEdgeStyle;rounded=0;orthogonalLoop=1;jettySize=auto;html=1;entryX=0.5;entryY=0;entryDx=0;entryDy=0;strokeColor=light-dark(#000000,#3399FF);" edge="1" parent="1" source="KD9PYuzohHq4luVNRM3h-38" target="KD9PYuzohHq4luVNRM3h-4">
          <mxGeometry relative="1" as="geometry">
            <Array as="points">
              <mxPoint x="540" y="379" />
              <mxPoint x="540" y="130" />
              <mxPoint x="227" y="130" />
            </Array>
          </mxGeometry>
        </mxCell>
        <mxCell id="KD9PYuzohHq4luVNRM3h-41" style="edgeStyle=orthogonalEdgeStyle;rounded=0;orthogonalLoop=1;jettySize=auto;html=1;entryX=1;entryY=0.5;entryDx=0;entryDy=0;strokeColor=light-dark(#000000,#3399FF);" edge="1" parent="1" source="KD9PYuzohHq4luVNRM3h-38" target="KD9PYuzohHq4luVNRM3h-16">
          <mxGeometry relative="1" as="geometry" />
        </mxCell>
        <mxCell id="KD9PYuzohHq4luVNRM3h-42" style="edgeStyle=orthogonalEdgeStyle;rounded=0;orthogonalLoop=1;jettySize=auto;html=1;entryX=1;entryY=0.5;entryDx=0;entryDy=0;strokeColor=light-dark(#000000,#3399FF);" edge="1" parent="1" source="KD9PYuzohHq4luVNRM3h-38" target="KD9PYuzohHq4luVNRM3h-17">
          <mxGeometry relative="1" as="geometry" />
        </mxCell>
        <mxCell id="KD9PYuzohHq4luVNRM3h-43" style="edgeStyle=orthogonalEdgeStyle;rounded=0;orthogonalLoop=1;jettySize=auto;html=1;entryX=1;entryY=0;entryDx=0;entryDy=0;strokeColor=light-dark(#000000,#3399FF);" edge="1" parent="1" source="KD9PYuzohHq4luVNRM3h-38" target="KD9PYuzohHq4luVNRM3h-9">
          <mxGeometry relative="1" as="geometry">
            <Array as="points">
              <mxPoint x="540" y="379" />
              <mxPoint x="540" y="530" />
              <mxPoint x="337" y="530" />
              <mxPoint x="337" y="674" />
            </Array>
          </mxGeometry>
        </mxCell>
        <mxCell id="KD9PYuzohHq4luVNRM3h-44" style="edgeStyle=orthogonalEdgeStyle;rounded=0;orthogonalLoop=1;jettySize=auto;html=1;entryX=1;entryY=0.5;entryDx=0;entryDy=0;strokeColor=light-dark(#000000,#3399FF);" edge="1" parent="1" source="KD9PYuzohHq4luVNRM3h-38" target="KD9PYuzohHq4luVNRM3h-11">
          <mxGeometry relative="1" as="geometry">
            <Array as="points">
              <mxPoint x="540" y="379" />
              <mxPoint x="540" y="830" />
            </Array>
          </mxGeometry>
        </mxCell>
        <mxCell id="KD9PYuzohHq4luVNRM3h-45" style="edgeStyle=orthogonalEdgeStyle;rounded=0;orthogonalLoop=1;jettySize=auto;html=1;entryX=1;entryY=0.5;entryDx=0;entryDy=0;strokeColor=light-dark(#000000,#3399FF);" edge="1" parent="1" source="KD9PYuzohHq4luVNRM3h-38" target="KD9PYuzohHq4luVNRM3h-13">
          <mxGeometry relative="1" as="geometry">
            <Array as="points">
              <mxPoint x="540" y="379" />
              <mxPoint x="540" y="446" />
            </Array>
          </mxGeometry>
        </mxCell>
        <mxCell id="KD9PYuzohHq4luVNRM3h-64" style="edgeStyle=orthogonalEdgeStyle;rounded=0;orthogonalLoop=1;jettySize=auto;html=1;entryX=1;entryY=0.5;entryDx=0;entryDy=0;strokeColor=light-dark(#000000,#3399FF);" edge="1" parent="1" source="KD9PYuzohHq4luVNRM3h-38" target="KD9PYuzohHq4luVNRM3h-59">
          <mxGeometry relative="1" as="geometry">
            <Array as="points">
              <mxPoint x="730" y="379" />
              <mxPoint x="730" y="960" />
            </Array>
          </mxGeometry>
        </mxCell>
        <object label="" Customer="" id="KD9PYuzohHq4luVNRM3h-38">
          <mxCell style="shape=mxgraph.signs.people.man_1;html=1;pointerEvents=1;fillColor=#000000;strokeColor=none;verticalLabelPosition=bottom;verticalAlign=top;align=center;" vertex="1" parent="1">
            <mxGeometry x="782" y="330" width="37" height="98" as="geometry" />
          </mxCell>
        </object>
        <mxCell id="KD9PYuzohHq4luVNRM3h-39" value="Administrator" style="text;strokeColor=none;align=center;fillColor=none;html=1;verticalAlign=middle;whiteSpace=wrap;rounded=0;" vertex="1" parent="1">
          <mxGeometry x="772" y="420" width="60" height="30" as="geometry" />
        </mxCell>
        <mxCell id="KD9PYuzohHq4luVNRM3h-51" style="edgeStyle=orthogonalEdgeStyle;rounded=0;orthogonalLoop=1;jettySize=auto;html=1;entryX=1;entryY=1;entryDx=0;entryDy=0;elbow=vertical;curved=1;" edge="1" parent="1" source="KD9PYuzohHq4luVNRM3h-46" target="KD9PYuzohHq4luVNRM3h-9">
          <mxGeometry relative="1" as="geometry">
            <Array as="points">
              <mxPoint x="517" y="791" />
              <mxPoint x="517" y="760" />
              <mxPoint x="269" y="760" />
            </Array>
          </mxGeometry>
        </mxCell>
        <object label="" Customer="" id="KD9PYuzohHq4luVNRM3h-46">
          <mxCell style="shape=mxgraph.signs.people.man_1;html=1;pointerEvents=1;fillColor=#000000;strokeColor=none;verticalLabelPosition=bottom;verticalAlign=top;align=center;" vertex="1" parent="1">
            <mxGeometry x="782" y="742" width="37" height="98" as="geometry" />
          </mxCell>
        </object>
        <mxCell id="KD9PYuzohHq4luVNRM3h-47" value="Payment Gateway" style="text;strokeColor=none;align=center;fillColor=none;html=1;verticalAlign=middle;whiteSpace=wrap;rounded=0;" vertex="1" parent="1">
          <mxGeometry x="770.5" y="850" width="60" height="30" as="geometry" />
        </mxCell>
        <mxCell id="KD9PYuzohHq4luVNRM3h-53" value="&amp;lt;&amp;lt;include&amp;gt;&amp;gt;" style="text;strokeColor=none;align=center;fillColor=none;html=1;verticalAlign=middle;whiteSpace=wrap;rounded=0;" vertex="1" parent="1">
          <mxGeometry x="277" y="360" width="60" height="30" as="geometry" />
        </mxCell>
        <mxCell id="KD9PYuzohHq4luVNRM3h-54" value="Defer Payment" style="ellipse;whiteSpace=wrap;html=1;" vertex="1" parent="1">
          <mxGeometry x="387" y="662" width="120" height="80" as="geometry" />
        </mxCell>
        <mxCell id="KD9PYuzohHq4luVNRM3h-56" value="&amp;lt;&amp;lt;extend&amp;gt;&amp;gt;" style="text;strokeColor=none;align=center;fillColor=none;html=1;verticalAlign=middle;whiteSpace=wrap;rounded=0;" vertex="1" parent="1">
          <mxGeometry x="307" y="680" width="60" height="30" as="geometry" />
        </mxCell>
        <mxCell id="KD9PYuzohHq4luVNRM3h-58" value="Car Rental System" style="text;strokeColor=none;align=center;fillColor=none;html=1;verticalAlign=middle;whiteSpace=wrap;rounded=0;fontSize=20;fontStyle=1" vertex="1" parent="1">
          <mxGeometry x="307" y="70" width="270" height="30" as="geometry" />
        </mxCell>
        <mxCell id="KD9PYuzohHq4luVNRM3h-59" value="Loyalty Program" style="ellipse;whiteSpace=wrap;html=1;" vertex="1" parent="1">
          <mxGeometry x="550" y="920" width="120" height="80" as="geometry" />
        </mxCell>
        <mxCell id="KD9PYuzohHq4luVNRM3h-63" value="&amp;lt;&amp;lt;include&amp;gt;&amp;gt;" style="text;strokeColor=none;align=center;fillColor=none;html=1;verticalAlign=middle;whiteSpace=wrap;rounded=0;" vertex="1" parent="1">
          <mxGeometry x="430" y="550" width="60" height="30" as="geometry" />
        </mxCell>
      </root>
    </mxGraphModel>
  </diagram>
  <diagram name="Copy of Page-1" id="InYJRdMuVrHIytcxI0JH">
    <mxGraphModel dx="730" dy="404" grid="1" gridSize="10" guides="1" tooltips="1" connect="1" arrows="1" fold="1" page="1" pageScale="1" pageWidth="850" pageHeight="1100" math="0" shadow="0">
      <root>
        <mxCell id="jyaQX554Gjm-CoG3jKA9-0" />
        <mxCell id="jyaQX554Gjm-CoG3jKA9-1" parent="jyaQX554Gjm-CoG3jKA9-0" />
        <mxCell id="a6EFIWe7jaA3s6D21qH--0" value="+----------------------+&#xa;|      Customer       |&#xa;+----------------------+&#xa;| - customerID        |&#xa;| - name              |&#xa;| - email             |&#xa;| - phone             |&#xa;+----------------------+&#xa;| + register()        |&#xa;| + login()           |&#xa;| + searchRestaurant()|&#xa;| + bookTable()       |&#xa;| + cancelReservation()|&#xa;+----------------------+&#xa;&#xa;&#xa;       |&#xa;       | (Association)&#xa;       v&#xa;&#xa;&#xa;+----------------------+&#xa;|     Reservation     |&#xa;+----------------------+&#xa;| - reservationID     |&#xa;| - date              |&#xa;| - time              |&#xa;| - status           |&#xa;+----------------------+&#xa;| + confirmReservation() |&#xa;| + cancelReservation()  |&#xa;+----------------------+&#xa;&#xa;&#xa;       |&#xa;       | (Association)&#xa;       v&#xa;&#xa;&#xa;+----------------------+&#xa;|     Payment        |&#xa;+----------------------+&#xa;| - paymentID       |&#xa;| - amount         |&#xa;| - paymentStatus  |&#xa;| - transactionDetails |&#xa;+----------------------+&#xa;| + processPayment() |&#xa;| + verifyPayment()  |&#xa;+----------------------+&#xa;&#xa;&#xa;       |&#xa;       | (Association)&#xa;       v&#xa;&#xa;&#xa;+----------------------+&#xa;|  Restaurant Manager  |&#xa;+----------------------+&#xa;| - managerID         |&#xa;| - name              |&#xa;| - contactInfo       |&#xa;+----------------------+&#xa;| + manageBookings()  |&#xa;| + updateTableAvailability() |&#xa;| + generateReport() |&#xa;+----------------------+&#xa;&#xa;&#xa;       |&#xa;       | (Association)&#xa;       v&#xa;&#xa;&#xa;+----------------------+&#xa;|       Table         |&#xa;+----------------------+&#xa;| - tableID          |&#xa;| - capacity         |&#xa;| - availabilityStatus |&#xa;+----------------------+&#xa;| + checkAvailability() |&#xa;| + updateStatus()   |&#xa;+----------------------+" style="text;whiteSpace=wrap;" vertex="1" parent="jyaQX554Gjm-CoG3jKA9-1">
          <mxGeometry x="160" y="400" width="190" height="1250" as="geometry" />
        </mxCell>
      </root>
    </mxGraphModel>
  </diagram>
</mxfile>
